<?xml version="1.0" encoding="UTF-8" standalone="no"?>
<!-- Created with Inkscape (http://www.inkscape.org/) -->

<svg
   width="306.09622mm"
   height="245.04582mm"
   viewBox="0 0 306.09622 245.04582"
   version="1.1"
   id="svg1"
   xml:space="preserve"
   sodipodi:docname="map.svg"
   inkscape:version="1.4.3 (0d15f75, 2025-12-25)"
   xmlns:inkscape="http://www.inkscape.org/namespaces/inkscape"
   xmlns:sodipodi="http://sodipodi.sourceforge.net/DTD/sodipodi-0.dtd"
   xmlns="http://www.w3.org/2000/svg"
   xmlns:svg="http://www.w3.org/2000/svg"><sodipodi:namedview
     id="namedview1"
     pagecolor="#ffffff"
     bordercolor="#000000"
     borderopacity="0.25"
     inkscape:showpageshadow="2"
     inkscape:pageopacity="0.0"
     inkscape:pagecheckerboard="0"
     inkscape:deskcolor="#d1d1d1"
     inkscape:document-units="mm"
     inkscape:zoom="0.55748644"
     inkscape:cx="280.72432"
     inkscape:cy="488.80113"
     inkscape:window-width="1920"
     inkscape:window-height="991"
     inkscape:window-x="-9"
     inkscape:window-y="-9"
     inkscape:window-maximized="1"
     inkscape:current-layer="layer1" /><defs
     id="defs1"><rect
       x="-46.637906"
       y="1252.0484"
       width="796.43193"
       height="290.59003"
       id="rect2" /><rect
       x="954.2833"
       y="425.12245"
       width="177.58279"
       height="159.64514"
       id="rect1" /><rect
       x="-46.637905"
       y="1252.0483"
       width="796.43195"
       height="290.59003"
       id="rect2-4" /></defs><g
     inkscape:label="Layer 1"
     inkscape:groupmode="layer"
     id="layer1"
     transform="translate(-4.945024,76.581344)"><path
   style="opacity:1;fill:#e15759;fill-opacity:1;stroke:#5a5a5a;stroke-width:2.4;stroke-dasharray:none;stroke-opacity:1"
   d="m 139.0523,53.057605 c -4.98416,-1.52402 -3.77834,-7.825351 -8.59429,-10.112061 -2.36934,-2.38333 -6.23931,-10.735497 4.81245,-8.914337 2.03142,-4.708846 7.29745,4.018927 9.79042,5.600317 1.80068,3.91004 7.56197,8.077099 2.80573,12.518229 -1.00297,2.105 -7.04707,2.111792 -8.81431,0.907852 z"
   id="KRP Warszawa I"
   sodipodi:nodetypes="cccccc"
   inkscape:export-xdpi="96"
   inkscape:export-ydpi="96" /><path
   style="opacity:1;fill:#59a14f;fill-opacity:1;stroke:#5a5a5a;stroke-width:2.4;stroke-dasharray:none;stroke-opacity:1"
   d="m 143.13362,38.2931 c 3.02432,-3.67358 8.0174,-2.99072 11.9529,-5.02609 3.67793,-1.17034 -4.32454,-6.4246 0.73591,-6.00841 5.08265,1.95097 8.06737,-3.55297 12.61598,-3.53624 0.16152,3.35196 19.80448,6.196325 23.82301,4.769265 3.64231,-0.27233 -6.74284,43.428412 -10.82333,43.381332 -2.61188,1.65839 -14.17719,2.62571 -15.3137,0.2413 C 165.91973,63.319143 140.34018,43.31241 143.13362,38.2931 Z"
   id="KRP Warszawa VII"
   sodipodi:nodetypes="cccccccc" /><path
   style="opacity:1;fill:#b07aa1;fill-opacity:1;stroke:#5a5a5a;stroke-width:2.4;stroke-dasharray:none;stroke-opacity:1"
   d="M 145.88086,1.7649499 C 134.05576,1.9778903 112.95592,1.580621 97.342124,-1.434798 91.019927,-6.8627236 86.621112,-15.278138 81.084862,-19.774717 c -5.816548,-6.185212 -9.113485,-18.281094 3.457332,-21.449073 15.164254,-2.811016 32.081086,-3.614083 33.495466,-20.729996 10.20498,-5.36135 18.0091,15.798972 27.3644,5.169078 7.06455,-2.95337 21.05134,-7.412007 16.76244,3.443541 -2.54483,7.09614 -15.79268,9.896631 -1.2277,18.049977 5.04809,11.681787 -0.7255,26.3900702 -4.6673,38.639158 -7.17255,3.5350539 -4.27599,-2.2801652 -10.38864,-1.5830181 z"
   id="KPP Legionowo"
   sodipodi:nodetypes="cccccccccc" /><path
   style="opacity:1;fill:#9c755f;fill-opacity:1;stroke:#5a5a5a;stroke-width:2.4;stroke-dasharray:none;stroke-opacity:1"
   d="m 17.897204,17.905719 c -30.432129,-38.349599 81.087034,-92.866385 82.404496,-93.22304 12.63651,5.134821 26.007,11.173967 15.67183,22.827521 -2.9374,15.253493 -33.926912,6.150303 -37.116904,23.334451 -1.080433,9.60913 34.065734,23.2959458 8.4259,30.12755883 C 85.732602,3.5375342 26.940398,25.521028 16.941059,20.367406 Z"
   id="KPP Nowy Dwór Maz."
   sodipodi:nodetypes="ccccccc" />
       <path
   style="opacity:1;fill:#9c755f;fill-opacity:1;stroke:#5a5a5a;stroke-width:2.4;stroke-dasharray:none;stroke-opacity:1"
   d="m 189.6226,32.071688 c -11.15878,-4.481828 -42.80644,-3.420131 -38.94531,-21.744571 7.75337,-13.30773 4.33293,-31.441141 4.76737,-45.376683 -12.74409,-13.498423 5.32929,-17.599791 16.31204,-21.540279 20.47883,-1.463286 29.15653,10.097722 42.00712,20.064515 10.75335,8.282092 27.73688,1.993115 36.9936,-6.606291 3.85211,-6.773468 -0.4549,-22.904467 13.15199,-13.382739 5.74697,7.551894 10.05764,14.781711 21.27148,12.18835 8.92395,4.675861 6.60293,22.855069 -5.88937,16.999253 24.31849,31.5445567 -82.77442,61.532132 -89.66892,59.398445 z"
   id="KPP Wołomin"
   sodipodi:nodetypes="cccccccccc" /><path
   style="opacity:1;fill:#4e79a7;fill-opacity:1;stroke:#5a5a5a;stroke-width:2.4;stroke-dasharray:none;stroke-opacity:1"
   d="M 6.3081082,30.915761 C 1.6044634,17.259292 95.704299,-2.9571666 96.276553,-5.7511538 109.15297,-7.436102 130.41429,11.905426 109.6024,16.205498 97.107894,28.697009 120.21937,53.328124 92.938993,56.174422 76.61258,51.703647 58.758465,60.737759 42.360243,62.082444 26.094669,57.612982 8.5405874,44.579711 6.3081082,30.915761 Z"
   id="KPP Warszawa Zach."
   sodipodi:nodetypes="cccccc" /><path
   style="opacity:1;fill:#b07aa1;fill-opacity:1;stroke:#5a5a5a;stroke-width:2.4;stroke-dasharray:none;stroke-opacity:1"
   d="M 81.774049,117.75925 C 71.807896,115.765 71.83032,87.977207 75.198371,88.506227 82.241581,89.931315 86.871427,83.180032 75.870427,77.187966 68.20072,75.448366 47.19201,57.063833 64.887471,56.138061 c 14.928157,-6.019593 36.252619,-3.103253 48.210089,10.094568 8.12417,4.068189 23.26868,18.402892 5.43044,16.917362 -9.49734,6.064187 -22.241543,11.17215 -28.853024,17.882399 -1.091609,4.40114 2.138123,23.02824 -7.900927,16.72686 z"
   id="KPP Pruszków"
   sodipodi:nodetypes="cccccccc" /><path
   style="opacity:1;fill:#4e79a7;fill-opacity:1;stroke:#5a5a5a;stroke-width:2.4;stroke-dasharray:none;stroke-opacity:1"
   d="m 277.27158,127.56934 c -13.28997,-2.64559 -91.2297,-83.465653 -89.9467,-93.327743 7.24721,-16.562669 75.7433,-29.7486386 86.43779,-38.4001171 44.45934,0.5131962 50.33907,112.3995801 3.50891,131.7278601 z"
   id="KPP Mińsk Maz."
   sodipodi:nodetypes="cccc" /><path
   style="opacity:1;fill:#9c755f;fill-opacity:1;stroke:#5a5a5a;stroke-width:2.4;stroke-dasharray:none;stroke-opacity:1"
   d="M 57.485169,146.71326 C 47.143333,134.74768 51.901932,117.97634 50.617306,104.139 15.442083,108.80114 2.1404994,77.174125 17.150839,54.049519 c 12.593771,-0.877744 30.788553,7.22539 41.618185,4.517241 9.198918,8.357926 18.492181,18.286242 26.374688,26.397152 4.377512,15.725468 -7.430841,0.245452 -10.650217,4.973162 -1.349828,12.165376 3.223743,20.015806 7.664787,30.539836 -5.755489,7.76354 -18.891148,20.98326 -24.673113,26.23635 z"
   id="KPP Grodzisk Maz."
   sodipodi:nodetypes="cccccccc" /><path
   style="opacity:1;fill:#4e79a7;fill-opacity:1;stroke:#5a5a5a;stroke-width:2.4;stroke-dasharray:none;stroke-opacity:1"
   d="M 182.09844,165.44739 C 161.71365,146.35113 95.893982,132.4502 65.0075,139.64928 48.313608,129.40666 88.148719,112.42203 89.891805,100.21439 91.418111,91.154086 125.08026,73.979146 136.61112,83.320182 c 14.88196,1.76744 29.46953,-13.81821 40.04569,5.210482 4.21983,12.232976 -2.29225,26.607936 5.98732,39.189236 3.7217,6.19206 14.68758,12.49011 5.7417,21.97258 -7.59584,3.85979 23.76763,23.53545 -6.28739,15.75491 z"
   id="KPP Piaseczno"
   sodipodi:nodetypes="cccccccc" /><path
   style="opacity:1;fill:#b07aa1;fill-opacity:1;stroke:#5a5a5a;stroke-width:2.4;stroke-dasharray:none;stroke-opacity:1"
   d="m 191.90013,164.74474 c -4.68594,-12.57659 -33.34651,-90.970658 -25.68721,-92.40554 16.34467,-3.315963 10.42333,-33.268608 22.66357,-35.047754 3.50391,10.448175 88.06038,82.642824 91.21146,91.590134 -8.4963,11.46873 -81.62565,21.80097 -85.15875,37.91424 l -1.41243,-0.47815 z"
   id="KPP Otwock"
   sodipodi:nodetypes="ccccccc" /><path
   style="opacity:1;fill:#59a14f;fill-opacity:1;stroke:#5a5a5a;stroke-width:2.4;stroke-dasharray:none;stroke-opacity:1"
   d="m 129.80555,35.297706 c -3.11124,-3.22034 -8.04049,1.939529 -11.01272,-1.980831 -4.55602,-2.01561 -12.41657,-4.613447 -16.43747,-7.738677 1.71831,-10.388833 11.91981,-15.541209 12.37916,-15.434138 3.98474,-4.9468799 5.58124,5.948438 9.02653,7.576718 3.15832,3.31512 9.1879,4.665722 10.22444,9.974352 0.12658,2.73369 4.33758,7.93581 -1.42363,6.5676 -0.65622,0.0463 -2.57153,2.135376 -2.75631,1.034976 z"
   id="KRP Warszawa V"
   sodipodi:nodetypes="cccccccc" /><path
   style="opacity:1;fill:#f28e2b;fill-opacity:1;stroke:#5a5a5a;stroke-width:2.4;stroke-dasharray:none;stroke-opacity:1"
   d="M 140.68994,38.01644 C 138.651,36.5247 137.89701,33.813325 135.5521,33.457885 133.75704,28.905495 133.57168,22.4869 127.57418,21.71833 118.51531,17.84531 109.79587,0.12898968 113.00059,-0.69389343 c 12.51439,-2.26717377 26.27725,1.08846845 29.9173,0.82596025 4.72337,0.4095 10.40882,3.19718778 13.25054,5.71068808 -2.88534,2.80283 -3.1957,10.3388731 -2.21541,14.0620931 0.92164,3.87079 6.78981,3.21241 8.30264,6.47528 -3.02384,3.12146 -4.94191,6.364251 -7.66478,9.776551 -0.82154,0.61134 -12.86724,2.775811 -13.90094,1.859761 z"
   id="KRP Warszawa VI"
   sodipodi:nodetypes="cccccccccc" /><path
   style="opacity:1;fill:#f28e2b;fill-opacity:1;stroke:#5a5a5a;stroke-width:2.4;stroke-dasharray:none;stroke-opacity:1"
   d="m 105.86375,51.377856 c -3.85012,0.643731 -8.044724,-27.80747 -2.73534,-25.673574 6.99872,2.466991 11.68821,4.543815 23.07778,7.848248 7.24652,1.875516 4.43559,6.552027 7.93653,9.630807 0.6721,3.539551 -7.6575,4.983703 -12.71913,6.206713 -3.71203,2.02915 -11.51682,1.924076 -15.55984,1.987806 z"
   id="KRP Warszawa IV"
   sodipodi:nodetypes="cccccc" /><path
   style="opacity:1;fill:#59a14f;fill-opacity:1;stroke:#5a5a5a;stroke-width:2.4;stroke-dasharray:none;stroke-opacity:1"
   d="M 126.98966,80.608063 C 125.42722,73.475024 96.5422,59.231266 96.48712,56.698124 c -3.848901,-3.299807 3.009918,-5.355884 7.32968,-6.649514 4.1286,-0.0738 8.32418,1.4828 12.51746,0.58344 4.4831,-0.65626 7.613,-3.517053 12.02364,-4.383393 4.91006,-2.981685 5.12109,-5.082628 7.81544,1.297955 1.53807,5.88872 -1.85677,1.726296 -4.66677,4.130836 -1.16904,2.48804 1.85753,15.583485 -0.0157,20.136275 -0.54742,0.80171 -3.32099,10.47429 -4.50125,8.79434 z"
   id="KRP Warszawa III"
   sodipodi:nodetypes="cccccccccc" /><path
   style="opacity:1;fill:#f28e2b;fill-opacity:1;stroke:#5a5a5a;stroke-width:2.4;stroke-dasharray:none;stroke-opacity:1"
   d="m 127.91078,81.570379 c -0.37762,-0.307522 4.68279,-23.86201 2.97274,-29.155871 1.97746,-3.67644 6.29438,-1.788378 9.317,-0.0676 3.8474,3.37593 6.60341,-0.72583 8.45825,-3.82895 10.79294,-1.099729 22.0189,29.212028 18.03829,31.263136 -1.31326,1.17477 -29.647,6.512774 -32.24221,5.229044 z"
   id="KRP Warszawa II"
   sodipodi:nodetypes="ccccccc"
   inkscape:export-xdpi="96"
   inkscape:export-ydpi="96" /><text
   xml:space="preserve"
   transform="matrix(0.26458333,0,0,0.26458333,250.70044,-285.85251)"
   id="text1"
   style="font-size:26.6667px;letter-spacing:1px;writing-mode:lr-tb;direction:ltr;white-space:pre;shape-inside:url(#rect2);display:inline;fill:#000000;fill-opacity:1;stroke:#000000;stroke-width:3.77953;stroke-miterlimit:3.1;stroke-dasharray:none;stroke-opacity:0.9"><tspan
     x="-46.638672"
     y="1276.3122"
     id="tspan16">Mińsk Maz.</tspan></text><text
   xml:space="preserve"
   transform="matrix(0.26458333,0,0,0.26458333,201.54318,-347.14299)"
   id="text1-2"
   style="font-size:26.6667px;letter-spacing:1px;writing-mode:lr-tb;direction:ltr;white-space:pre;shape-inside:url(#rect2-4);display:inline;fill:#000000;fill-opacity:1;stroke:#000000;stroke-width:3.77953;stroke-miterlimit:3.1;stroke-dasharray:none;stroke-opacity:0.9"><tspan
     x="-46.638672"
     y="1276.3122"
     id="tspan17">Wołomin</tspan></text><text
   xml:space="preserve"
   style="font-size:7.05556px;letter-spacing:0.264583px;writing-mode:lr-tb;direction:ltr;fill:#000000;fill-opacity:1;stroke:#000000;stroke-width:1;stroke-miterlimit:3.1;stroke-dasharray:none;stroke-opacity:0.9"
   x="106.29417"
   y="-25.571178"
   id="text2"><tspan
     sodipodi:role="line"
     id="tspan2"
     style="stroke-width:1"
     x="106.29417"
     y="-25.571178">Legionowo</tspan></text><text
   xml:space="preserve"
   style="font-size:7.05556px;letter-spacing:0.264583px;writing-mode:lr-tb;direction:ltr;fill:#000000;fill-opacity:1;stroke:#000000;stroke-width:1;stroke-miterlimit:3.1;stroke-dasharray:none;stroke-opacity:0.9"
   x="32.128075"
   y="-13.48982"
   id="text3"><tspan
     sodipodi:role="line"
     id="tspan3"
     style="stroke-width:1"
     x="32.128075"
     y="-13.48982">Nowy Dwór</tspan></text><text
   xml:space="preserve"
   style="font-size:7.05556px;letter-spacing:0.264583px;writing-mode:lr-tb;direction:ltr;fill:#000000;fill-opacity:1;stroke:#000000;stroke-width:1;stroke-miterlimit:3.1;stroke-dasharray:none;stroke-opacity:0.9"
   x="137.83994"
   y="45.910179"
   id="text4"><tspan
     sodipodi:role="line"
     id="tspan4"
     style="stroke-width:1"
     x="137.83994"
     y="45.910179">I</tspan></text><text
   xml:space="preserve"
   style="font-size:7.05556px;letter-spacing:0.264583px;writing-mode:lr-tb;direction:ltr;fill:#000000;fill-opacity:1;stroke:#000000;stroke-width:1;stroke-miterlimit:3.1;stroke-dasharray:none;stroke-opacity:0.9"
   x="31.792482"
   y="25.774584"
   id="text5"><tspan
     sodipodi:role="line"
     id="tspan5"
     style="stroke-width:1"
     x="31.792482"
     y="25.774584">Warszawa Zach.</tspan></text><text
   xml:space="preserve"
   style="font-size:7.05556px;letter-spacing:0.264583px;writing-mode:lr-tb;direction:ltr;fill:#000000;fill-opacity:1;stroke:#000000;stroke-width:1;stroke-miterlimit:3.1;stroke-dasharray:none;stroke-opacity:0.9"
   x="195.1729"
   y="108.54517"
   id="text6"><tspan
     sodipodi:role="line"
     id="tspan6"
     style="stroke-width:1"
     x="195.1729"
     y="108.54517">Otwock</tspan></text><text
   xml:space="preserve"
   style="font-size:7.05556px;letter-spacing:0.264583px;writing-mode:lr-tb;direction:ltr;fill:#000000;fill-opacity:1;stroke:#000000;stroke-width:1;stroke-miterlimit:3.1;stroke-dasharray:none;stroke-opacity:0.9"
   x="111.99926"
   y="117.05595"
   id="text7"><tspan
     sodipodi:role="line"
     id="tspan7"
     style="stroke-width:1"
     x="111.99926"
     y="117.05595">Piaseczno</tspan></text><text
   xml:space="preserve"
   style="font-size:7.05556px;letter-spacing:0.264583px;writing-mode:lr-tb;direction:ltr;fill:#000000;fill-opacity:1;stroke:#000000;stroke-width:1;stroke-miterlimit:3.1;stroke-dasharray:none;stroke-opacity:0.9"
   x="135.1552"
   y="10.67289"
   id="text8"><tspan
     sodipodi:role="line"
     id="tspan8"
     style="stroke-width:1"
     x="135.1552"
     y="10.67289">VI</tspan></text><text
   xml:space="preserve"
   style="font-size:7.05556px;letter-spacing:0.264583px;writing-mode:lr-tb;direction:ltr;fill:#000000;fill-opacity:1;stroke:#000000;stroke-width:1;stroke-miterlimit:3.1;stroke-dasharray:none;stroke-opacity:0.9"
   x="142.87383"
   y="70.576286"
   id="text9"><tspan
     sodipodi:role="line"
     id="tspan9"
     style="stroke-width:1"
     x="142.87383"
     y="70.576286">II</tspan></text><text
   xml:space="preserve"
   style="font-size:7.05556px;letter-spacing:0.264583px;writing-mode:lr-tb;direction:ltr;fill:#000000;fill-opacity:1;stroke:#000000;stroke-width:1;stroke-miterlimit:3.1;stroke-dasharray:none;stroke-opacity:0.9"
   x="113.17384"
   y="59.501709"
   id="text10"><tspan
     sodipodi:role="line"
     id="tspan10"
     style="stroke-width:1"
     x="113.17384"
     y="59.501709">III</tspan></text><text
   xml:space="preserve"
   style="font-size:7.05556px;letter-spacing:0.264583px;writing-mode:lr-tb;direction:ltr;fill:#000000;fill-opacity:1;stroke:#000000;stroke-width:1;stroke-miterlimit:3.1;stroke-dasharray:none;stroke-opacity:0.9"
   x="109.48231"
   y="41.71526"
   id="text11"><tspan
     sodipodi:role="line"
     id="tspan11"
     style="stroke-width:1"
     x="109.48231"
     y="41.71526">IV</tspan></text><text
   xml:space="preserve"
   style="font-size:7.05556px;letter-spacing:0.264583px;writing-mode:lr-tb;direction:ltr;fill:#000000;fill-opacity:1;stroke:#000000;stroke-width:1;stroke-miterlimit:3.1;stroke-dasharray:none;stroke-opacity:0.9"
   x="115.69078"
   y="25.438992"
   id="text12"><tspan
     sodipodi:role="line"
     id="tspan12"
     style="stroke-width:1"
     x="115.69078"
     y="25.438992">V</tspan></text><text
   xml:space="preserve"
   style="font-size:7.05556px;letter-spacing:0.264583px;writing-mode:lr-tb;direction:ltr;fill:#000000;fill-opacity:1;stroke:#000000;stroke-width:1;stroke-miterlimit:3.1;stroke-dasharray:none;stroke-opacity:0.9"
   x="162.67383"
   y="48.427124"
   id="text13"><tspan
     sodipodi:role="line"
     id="tspan13"
     style="stroke-width:1"
     x="162.67383"
     y="48.427124">VII</tspan></text><text
   xml:space="preserve"
   style="font-size:7.05556px;letter-spacing:0.264583px;writing-mode:lr-tb;direction:ltr;fill:#000000;fill-opacity:1;stroke:#000000;stroke-width:1;stroke-miterlimit:3.1;stroke-dasharray:none;stroke-opacity:0.9"
   x="79.111122"
   y="75.106789"
   id="text14"><tspan
     sodipodi:role="line"
     id="tspan14"
     style="stroke-width:1"
     x="79.111122"
     y="75.106789">Pruszków</tspan></text><text
   xml:space="preserve"
   style="font-size:7.05556px;letter-spacing:0.264583px;writing-mode:lr-tb;direction:ltr;fill:#000000;fill-opacity:1;stroke:#000000;stroke-width:1;stroke-miterlimit:3.1;stroke-dasharray:none;stroke-opacity:0.9"
   x="19.375532"
   y="85.845764"
   id="text15"><tspan
     sodipodi:role="line"
     id="tspan15"
     style="stroke-width:1"
     x="19.375532"
     y="85.845764">Grodzisk Maz.</tspan></text></g></svg>
